<?xml version="1.0" encoding="UTF-8"?>
<!DOCTYPE svg PUBLIC "-//W3C//DTD SVG 1.1//EN" "http://www.w3.org/Graphics/SVG/1.1/DTD/svg11.dtd">
<!-- Creator: CorelDRAW 2020 (64 Bit) -->
<svg xmlns="http://www.w3.org/2000/svg" xml:space="preserve" width="3200px" height="3200px" version="1.1" style="shape-rendering:geometricPrecision; text-rendering:geometricPrecision; image-rendering:optimizeQuality; fill-rule:evenodd; clip-rule:evenodd"
viewBox="0 0 3200 3200"
 xmlns:xlink="http://www.w3.org/1999/xlink"
 xmlns:xodm="http://www.corel.com/coreldraw/odm/2003">
 <defs>
  <style type="text/css">
   <![CDATA[
    .fil0 {fill:none}
    .fil4 {fill:black}
    .fil3 {fill:#3399FF}
    .fil1 {fill:#FF3333}
    .fil2 {fill:#FFCC00}
   ]]>
  </style>
 </defs>
 <g id="Camada_x0020_1">
  <metadata id="CorelCorpID_0Corel-Layer"/>
  <rect class="fil0" width="3200" height="3200"/>
  <g id="_1688011994448">
   <path class="fil1" d="M762.52 462.86c39.55,-25.39 42.84,-15.85 77.72,-51.37 49.93,-50.84 37.09,-136.5 -9.32,-184.9 -35.96,-37.51 -43.95,-25.06 -81.33,-47.66 -288.58,9.54 -498.6,189.52 -559.6,429.4 -138.32,543.92 550.32,867.74 669.11,617.37 35.94,-75.73 -6.68,-141.83 -48.81,-170.33 -51.48,-34.83 -132.29,-23.84 -196.54,-55.71 -248.73,-123.36 -193.32,-541.96 148.77,-536.8z"/>
   <path class="fil2" d="M762.52 462.86c136.67,14.72 226.49,99.25 256.89,215.72 25.23,96.63 1.97,348.26 10.07,468.56 20.3,-60.88 58.99,-111.85 134.26,-114.66 38.2,-1.42 74.32,13.45 96.95,31.98 34.26,28.07 31.77,43.82 49.69,79.73 10.36,-111.75 2.09,-267.22 1.91,-383.57 -0.18,-115.23 -31.52,-219.5 -79.18,-302.4 -77.76,-135.22 -255.85,-283.43 -483.52,-279.29 37.38,22.6 45.37,10.15 81.33,47.66 46.41,48.4 59.25,134.06 9.32,184.9 -34.88,35.52 -38.17,25.98 -77.72,51.37z"/>
   <path class="fil3" d="M1029.48 1147.14c-16.19,221.29 294.3,231.86 280.9,-2.95 -17.92,-35.91 -15.43,-51.66 -49.69,-79.73 -22.63,-18.53 -58.75,-33.4 -96.95,-31.98 -75.27,2.81 -113.96,53.78 -134.26,114.66z"/>
  </g>
  <g id="_1688011996224">
   <path class="fil4" d="M1662.85 1284.87c-66.48,-0.52 -132.83,-0.08 -199.3,-1.56 -101.56,-2.25 -87.31,5.46 -139.67,57.14 -63.62,62.8 -141.62,125.94 -196.81,193.98l-404.25 387.49c21.15,46.75 62.36,72.31 96.59,105.23 34.86,33.53 59.28,67.82 94.44,100.77l307.72 289.84c194.82,200.96 87.11,159.91 434.88,162.24 197.89,284.94 -2.43,194.2 447.33,312.75 95.72,25.23 552.92,157.44 603.38,145.29 62.28,-163.5 113.86,-401.91 164.57,-584.45 12.2,-43.95 77.26,-259.09 74.64,-287.35 -3.96,-42.75 -130.71,-208.09 -127.28,-237.15 4.09,-34.67 123.6,-185.38 126.37,-231.22 1.63,-27.13 -65.29,-254.84 -77.2,-296.87 -30.28,-106.79 -127.65,-514.34 -166.44,-580.7l-895.3 231.49c-31.08,17.27 -128.79,195.07 -143.67,233.08zm710.56 1430.79l-399.16 -670.87 -790.12 -1.18c57,71.83 162.56,162.87 232.76,232.99 40.53,40.5 74.39,72.8 114.83,113.23 33.68,33.68 79.15,90.57 114.14,124.6 58.42,56.83 253.72,84.49 356.83,110.46 117.88,29.69 252.6,68.62 370.72,90.77zm198.1 -117.33l192.75 -662.17c0.42,-43.88 -174.27,-646.04 -193.56,-671.48 -40.65,73.44 -389.72,644.01 -391.52,663.39 -1.73,18.56 349.91,617.71 392.33,670.26zm-1386.59 -774.39l789.33 -1.41c31.98,-35.98 75.37,-117.19 102.59,-163.5 47.23,-80.35 289.78,-479.24 292.89,-509.01 -43.14,20.77 -292.95,72.94 -364.2,90.49 -103.85,25.57 -297.16,54.19 -355.67,110.9 -63.43,61.5 -444.36,423.08 -464.94,472.53z"/>
   <path class="fil4" d="M1038.22 2674.85l0.04 299.09c146.19,0 258.06,15.64 256.59,-157.97 -1.4,-167.14 -108.21,-153.51 -256.73,-153.51l0.1 12.39zm39.45 263.4c105.98,8.41 173.07,-2.91 177.46,-112.22 4.78,-119.22 -62.72,-141.31 -177.83,-125.1l0.37 237.32z"/>
   <path class="fil4" d="M749.92 2974.41c80.54,-4.43 23.46,-57.91 84.12,-94.04l121.06 0.13c33.48,115.78 26.5,91.49 77.28,93.44l-95.73 -238.79c-33.22,-84.06 -15.7,-69.95 -48.78,-71.85 -51.17,-2.95 -137.64,303.16 -137.95,311.11zm82.99 -127.58l105.85 -0.45 -53.57 -145.67 -52.28 146.12z"/>
   <path class="fil4" d="M1324.48 2774.07c78.76,70.99 142.38,46.78 191.95,94.72 -0.11,59.51 -26.42,83.46 -93.88,75.06 -78.53,-9.77 -44.63,-58.95 -99.85,-69.25 -61.19,80.47 154.94,156.21 217.99,61.64 35.2,-52.8 10.98,-108.46 -45.52,-129.6 -55.9,-20.91 -95.63,-7.09 -136.63,-54.97 6.82,-47.12 34.23,-69.84 93.79,-58.07 82.55,16.32 17.96,65.53 93.93,52.77 -10.75,-64.03 -46.02,-88.61 -114.97,-88.57 -82.05,0.05 -114.24,33.61 -106.81,116.27z"/>
  </g>
 </g>
</svg>